# xmcd
#
# Track frame offsets: 
#        150
#        25548
#        46246
#        64909
#        82545
#        100048
#        122447
#        146092
#        170458
#        188462
#        199823
#        227251
#        267896
#
# Disc length: 3908 seconds
#
# Revision: 0
# Processed by: cddbd v1.5.2PL0 Copyright (c) Steve Scherf et al.
# Submitted via: ExactAudioCopy v1.3
#
DISCID=950f420d
DTITLE=John Cowan - John Cowan
DYEAR=2000
DGENRE=Bluegrass
TTITLE0=Roll Away the Stone
TTITLE1=All I Want To Feel
TTITLE2=Gotta Get Go
TTITLE3=Nothing But the Blues
TTITLE4=Wichita Way
TTITLE5=High Above The Power Line
TTITLE6=I Want You To
TTITLE7=Mississippi Delta Time
TTITLE8=This River
TTITLE9=My Heart Will Follow You
TTITLE10=Dark As a Dungeon
TTITLE11=Sligo
TTITLE12=Last Summer Rose
EXTD=
EXTT0=
EXTT1=
EXTT2=
EXTT3=
EXTT4=
EXTT5=
EXTT6=
EXTT7=
EXTT8=
EXTT9=
EXTT10=
EXTT11=
EXTT12=
PLAYORDER=
